<svg width="250" height="101" viewBox="0 0 250 101" fill="none" xmlns="http://www.w3.org/2000/svg">
<path fill-rule="evenodd" clip-rule="evenodd" d="M162.143 14.8621V68.2993H149.472V17.5277L162.143 14.8621ZM126.032 73.364C127.275 73.371 128.488 73.746 129.517 74.4415C130.547 75.137 131.348 76.1219 131.819 77.272C132.289 78.4221 132.409 79.6859 132.162 80.9039C131.915 82.1218 131.314 83.2394 130.432 84.1157C129.551 84.9919 128.43 85.5876 127.211 85.8274C125.991 86.0673 124.728 85.9407 123.581 85.4635C122.434 84.9863 121.453 84.18 120.763 83.1462C120.074 82.1125 119.706 80.8976 119.706 79.6549C119.708 78.8265 119.873 78.0066 120.193 77.242C120.512 76.4775 120.978 75.7834 121.566 75.1992C122.153 74.615 122.85 74.1523 123.616 73.8374C124.383 73.5225 125.204 73.3617 126.032 73.364ZM126.032 30.0385C129.864 30.0665 133.602 31.2285 136.774 33.3778C139.947 35.5272 142.412 38.5677 143.859 42.116C145.306 45.6643 145.67 49.5617 144.905 53.3166C144.141 57.0716 142.281 60.5161 139.562 63.2158C136.842 65.9156 133.384 67.7497 129.624 68.4871C125.863 69.2244 121.969 68.8319 118.431 67.359C114.893 65.8861 111.871 63.3989 109.745 60.2107C107.619 57.0226 106.484 53.2764 106.484 49.4443C106.522 44.2845 108.598 39.3489 112.26 35.7136C115.921 32.0783 120.872 30.0383 126.032 30.0385ZM126.032 55.7352C127.275 55.7282 128.488 55.3533 129.517 54.6578C130.547 53.9623 131.348 52.9773 131.819 51.8272C132.289 50.6771 132.409 49.4134 132.162 48.1954C131.915 46.9774 131.314 45.8598 130.432 44.9836C129.551 44.1073 128.43 43.5117 127.211 43.2718C125.991 43.032 124.728 43.1586 123.581 43.6358C122.434 44.1129 121.453 44.9193 120.763 45.953C120.074 46.9868 119.706 48.2016 119.706 49.4443C119.708 50.2728 119.873 51.0927 120.193 51.8572C120.512 52.6217 120.978 53.3159 121.566 53.9C122.153 54.4842 122.85 54.9469 123.616 55.2618C124.383 55.5767 125.204 55.7376 126.032 55.7352ZM86.1541 55.7352C86.6933 55.7715 87.2341 55.6966 87.7431 55.5152C88.2522 55.3338 88.7185 55.0497 89.1132 54.6807C89.5079 54.3116 89.8226 53.8654 90.0377 53.3697C90.2529 52.874 90.3639 52.3394 90.3639 51.799C90.3639 51.2586 90.2529 50.724 90.0377 50.2283C89.8226 49.7326 89.5079 49.2864 89.1132 48.9173C88.7185 48.5482 88.2522 48.2642 87.7431 48.0828C87.2341 47.9014 86.6933 47.8265 86.1541 47.8627H76.6466V55.7352H86.1541ZM76.6466 27.4439V35.2987H83.755C84.7966 35.2987 85.7956 34.8849 86.5321 34.1484C87.2686 33.4118 87.6824 32.4129 87.6824 31.3713C87.6824 30.3297 87.2686 29.3307 86.5321 28.5942C85.7956 27.8577 84.7966 27.4439 83.755 27.4439H76.6466ZM97.8296 40.0435C99.3997 41.5731 100.646 43.4028 101.495 45.4238C102.344 47.4449 102.777 49.6159 102.77 51.8079C102.761 53.9829 102.323 56.1348 101.482 58.1407C100.641 60.1466 99.4132 61.9672 97.8687 63.4986C96.3241 65.0299 94.493 66.2421 92.48 67.0658C90.4669 67.8895 88.3114 68.3086 86.1363 68.2993H63.9404V14.8621H83.6662C85.8435 14.8527 88.0014 15.2723 90.0166 16.0969C92.0318 16.9216 93.8648 18.135 95.4111 19.668C96.9573 21.2011 98.1864 23.0236 99.0283 25.0317C99.8701 27.0397 100.308 29.1939 100.318 31.3713C100.326 34.4392 99.463 37.4465 97.8296 40.0435ZM186.098 43.2956H179.771V53.1585C179.771 56.144 180.749 58.3476 183.326 58.3476C184.286 58.3542 185.243 58.2286 186.169 57.9744V67.233C184.269 68.2608 182.145 68.8041 179.985 68.8147H179.025C171.917 68.4415 167.136 64.0343 167.136 56.375V23.7476L179.807 21.0819V30.6782H186.151L186.098 43.2956Z" fill="#081C15"/>
</svg>
