<svg width="250" height="101" viewBox="0 0 250 101" fill="none" xmlns="http://www.w3.org/2000/svg">
<path d="M216.202 57.1386C214.515 58.8637 212.445 59.7456 209.992 59.7456C207.117 59.7456 204.97 58.5185 204.395 56.8322V66.1094H200.215V41.8035H204.395V44.3337C204.97 42.6086 207.117 41.4199 209.992 41.4199C212.445 41.4199 214.554 42.3017 216.202 44.0647C217.889 45.7899 218.732 47.9754 218.732 50.5818C218.732 53.2285 217.889 55.3753 216.202 57.1386ZM213.097 46.75C212.138 45.7532 210.911 45.2166 209.416 45.2166C207.92 45.2166 206.618 45.7537 205.582 46.75C204.585 47.7465 204.049 49.0504 204.049 50.5833C204.049 52.1168 204.585 53.4201 205.582 54.4169C206.617 55.4135 207.92 55.9504 209.416 55.9504C210.911 55.9504 212.138 55.413 213.097 54.4169C214.094 53.4201 214.592 52.1168 214.592 50.5833C214.592 49.0504 214.094 47.7847 213.097 46.75ZM187.679 59.8998C184.995 59.8998 182.734 58.9801 180.894 57.2153C179.053 55.4521 178.095 53.1908 178.095 50.5833C178.095 47.9763 179.053 45.7532 180.894 43.9513C182.734 42.1883 184.995 41.2681 187.679 41.2681C190.363 41.2681 192.624 42.1881 194.465 43.9513C196.306 45.7146 197.264 47.9771 197.264 50.5833C197.264 53.1903 196.306 55.4135 194.465 57.2153C192.624 59.0172 190.363 59.8998 187.679 59.8998ZM191.551 46.7111C190.516 45.6373 189.213 45.1014 187.679 45.1014C186.107 45.1014 184.842 45.6381 183.769 46.7111C182.773 47.7463 182.236 49.0504 182.236 50.6217C182.236 52.193 182.773 53.4964 183.769 54.57C184.804 55.6054 186.107 56.1423 187.679 56.1423C189.213 56.1423 190.517 55.6056 191.551 54.57C192.586 53.4964 193.123 52.194 193.123 50.6217C193.123 49.0494 192.586 47.7465 191.551 46.7111ZM174.76 59.5539C171.999 59.5539 170.658 58.0212 170.658 54.9541V49.0885C170.658 46.6737 169.354 45.1782 167.132 45.1782C164.871 45.1782 163.26 46.8654 163.26 49.2421V59.3629H159.12V35.0578H163.26V44.2582C164.065 42.5709 165.982 41.4595 168.359 41.4595C172.384 41.4595 174.761 44.1433 174.761 48.5135V54.0719C174.761 55.414 174.99 55.912 175.95 55.912C176.142 55.912 176.372 55.8741 176.525 55.8357V59.362C176.14 59.4779 175.565 59.5539 174.76 59.5539ZM149.65 48.2827C150.187 48.4362 151.144 48.7807 151.835 49.011C155.056 50.1613 156.55 51.7329 156.55 54.225C156.55 57.4835 154.097 59.7837 149.343 59.7837C145.817 59.7837 143.209 58.4424 142.097 56.2186L144.781 53.9568C145.587 55.2218 147.273 56.142 149.42 56.142C151.606 56.142 152.563 55.2988 152.563 54.2252C152.563 53.6505 152.142 53.1517 151.567 52.8454C151.184 52.6158 150.454 52.3473 149.919 52.1945C149.381 52.0024 148.347 51.6958 147.772 51.4662C144.934 50.4694 143.44 49.012 143.44 46.5204C143.44 44.8721 144.015 43.645 145.204 42.6868C146.43 41.7282 147.888 41.2691 149.612 41.2691C152.066 41.2691 153.945 42.1502 155.285 43.8374L152.948 46.329C152.18 45.3701 151.031 44.8721 149.535 44.8721C148.231 44.8721 147.427 45.4858 147.427 46.4439C147.427 47.0194 147.733 47.3637 148.23 47.671C148.5 47.8614 149.189 48.1299 149.65 48.2827ZM139.49 45.4459C136.615 45.4459 134.775 47.2478 134.775 50.1618V59.4008H130.635V41.804H134.775V44.4117C135.618 42.5709 137.535 41.4595 139.989 41.4595C140.486 41.4595 140.909 41.4974 141.254 41.5742V45.5999C140.718 45.5229 140.103 45.4459 139.49 45.4459ZM114.111 51.6566C114.264 54.4556 116.298 56.2572 119.401 56.2572C121.203 56.2572 122.775 55.6056 124.117 54.225L126.61 56.6792C124.616 58.7877 122.201 59.8231 119.248 59.8231C116.488 59.8231 114.227 58.9798 112.539 57.3315C110.853 55.6831 109.971 53.4974 109.971 50.7374V50.5841C109.971 47.7852 110.853 45.5618 112.539 43.8751C114.264 42.1499 116.488 41.3456 119.134 41.3456C121.663 41.3456 123.771 42.1888 125.345 43.8751C126.993 45.6004 127.797 47.6708 127.797 50.2007C127.797 50.7374 127.758 51.1983 127.721 51.6576H114.111V51.6566ZM122.277 46.0214C121.395 45.2552 120.399 44.8713 119.172 44.8713C117.869 44.8713 116.718 45.2545 115.798 45.9835C114.84 46.7114 114.341 47.6319 114.226 48.7047H123.58C123.58 47.6698 123.121 46.75 122.277 46.0214ZM106.559 59.5539C103.799 59.5539 102.458 58.0212 102.458 54.9541V49.0885C102.458 46.6737 101.115 45.1782 98.7763 45.1782C96.4376 45.1782 94.8276 46.8654 94.8276 49.2421V59.3629H90.6877V41.8047H94.8276V44.2963C95.6721 42.5712 97.6263 41.4211 100.08 41.4211C104.221 41.4211 106.636 44.1049 106.636 48.4751V54.0336C106.636 55.3756 106.867 55.8736 107.825 55.8736C108.017 55.8736 108.247 55.8357 108.399 55.7968V59.3236C107.901 59.4779 107.287 59.5539 106.559 59.5539ZM85.973 45.4459C83.0975 45.4459 81.2565 47.2478 81.2565 50.1618V59.4008H77.1173V41.804H81.2565V44.4117C82.101 42.5709 84.0178 41.4595 86.4705 41.4595C86.9698 41.4595 87.391 41.4974 87.7362 41.5742V45.5999C87.1988 45.5229 86.5854 45.4459 85.973 45.4459ZM64.6188 59.8998C61.9343 59.8998 59.6733 58.9801 57.8333 57.2153C55.992 55.4521 55.0346 53.1908 55.0346 50.5833C55.0346 47.9763 55.992 45.7532 57.8333 43.9513C59.6733 42.1883 61.9345 41.2681 64.6188 41.2681C67.3021 41.2681 69.5633 42.1881 71.4046 43.9513C73.2444 45.7146 74.202 47.9771 74.202 50.5833C74.202 53.1903 73.2446 55.4135 71.4046 57.2153C69.5641 59.0172 67.3021 59.8998 64.6188 59.8998ZM68.4524 46.7111C67.417 45.6373 66.1136 45.1014 64.5802 45.1014C63.0086 45.1014 61.7436 45.6381 60.6701 46.7111C59.6733 47.7463 59.1366 49.0504 59.1366 50.6217C59.1366 52.193 59.674 53.4964 60.6701 54.57C61.7047 55.6054 63.0086 56.1423 64.5802 56.1423C66.1136 56.1423 67.4175 55.6056 68.4524 54.57C69.4871 53.4964 70.024 52.194 70.024 50.6217C70.024 49.0494 69.5259 47.7465 68.4524 46.7111ZM44.1468 55.8741C46.908 55.8741 49.169 54.8773 50.8558 52.8451L53.7703 55.3753C51.3929 58.174 47.9048 59.7837 44.1468 59.7837C40.5437 59.7837 37.5147 58.5952 34.985 56.2186C32.5316 53.8037 31.2666 50.8134 31.2666 47.2091C31.2666 43.6059 32.5318 40.6158 34.985 38.2002C37.4774 35.7849 40.5437 34.5964 44.1468 34.5964C48.019 34.5964 51.2008 36.0533 53.7703 38.9667L50.7795 41.5737C49.0551 39.5801 46.8313 38.6219 44.1468 38.6219C41.6941 38.6219 39.6619 39.4652 38.0135 41.1135C36.3647 42.7619 35.5606 44.7936 35.5606 47.2852C35.5606 49.7765 36.3647 51.8087 38.0135 53.4578C39.6616 55.0682 41.6933 55.8741 44.1468 55.8741Z" fill="#081C15"/>
</svg>
