<svg width="250" height="101" viewBox="0 0 250 101" fill="none" xmlns="http://www.w3.org/2000/svg">
<path d="M28.1074 50.7055C28.1074 42.5494 33.9265 37.5367 43.2305 37.5367H52.8666V25.5804H64.9193V63.1407H43.1856C33.9256 63.1407 28.1074 58.3245 28.1074 50.7055ZM40.8308 50.3013C40.8308 53.4288 42.7244 55.0595 46.3618 55.0595H52.8021V45.4823H46.4217C42.7796 45.4823 40.8308 47.1289 40.8308 50.3013ZM142.886 50.2863C142.886 58.4415 137.067 63.4541 127.763 63.4541H118.127V75.4104H106.07V37.8511H127.804C137.066 37.8511 142.882 42.6691 142.882 50.2863H142.886ZM130.162 50.6905C130.162 47.563 128.267 45.9314 124.625 45.9314H118.191V55.5085H124.58C128.222 55.5085 130.162 53.8629 130.162 50.6905ZM221.893 50.2863C221.893 58.4415 216.073 63.4541 206.769 63.4541H197.133V75.4104H185.081V37.8511H206.814C216.076 37.8511 221.893 42.6691 221.893 50.2863ZM209.169 50.6905C209.169 47.563 207.274 45.9314 203.632 45.9314H197.198V55.5085H203.587C207.233 55.5085 209.173 53.8629 209.173 50.6905H209.169ZM146.47 50.5109C146.47 41.3827 153.767 36.5039 163.828 36.5039C173.889 36.5039 181.186 41.3827 181.186 50.5109C181.186 59.639 173.889 64.6376 163.828 64.6376C153.772 64.6226 146.47 59.639 146.47 50.5109ZM169.368 50.3724C169.368 45.9229 167.139 43.6907 163.755 43.6907C160.371 43.6907 158.142 45.9229 158.142 50.3724C158.142 54.761 160.371 57.1588 163.755 57.1588C167.154 57.1401 169.368 54.7573 169.368 50.3724ZM102.03 51.0095C102.03 41.8823 96.1599 36.3579 85.5546 36.3579C75.3665 36.3579 68.8083 41.8823 68.8083 50.5296C68.8083 59.2816 75.3066 64.4907 86.1356 64.4907C92.9473 64.4907 98.4436 61.9385 101.342 57.795L92.7078 54.6432C91.2109 56.2794 88.959 57.1804 86.5837 57.1804C83.0136 57.1804 80.5345 55.7387 79.8917 53.2922C79.848 53.129 79.8134 52.9635 79.7879 52.7964H102.03V51.0067V51.0095ZM79.8833 47.1289C80.164 44.1632 82.2222 42.3398 85.7866 42.3398C89.351 42.3398 91.4055 44.267 91.4055 47.1289H79.8833Z" fill="#081C15"/>
</svg>
