<svg width="250" height="101" viewBox="0 0 250 101" fill="none" xmlns="http://www.w3.org/2000/svg">
<path fill-rule="evenodd" clip-rule="evenodd" d="M155.35 70.3324C147.929 71.0935 141.84 65.0045 141.84 57.0127C141.84 49.0209 147.548 42.3611 154.589 42.5514C158.087 42.714 161.402 44.164 163.896 46.6228C166.389 49.0815 167.886 52.3754 168.099 55.871C168.202 59.4484 166.943 62.9317 164.577 65.6163C162.21 68.3009 158.912 69.9866 155.35 70.3324ZM114.059 55.1099C114.242 51.604 115.729 48.2933 118.229 45.8285C120.729 43.3638 124.061 41.9233 127.569 41.7903C134.609 41.6 140.318 48.0695 140.318 56.2516C140.318 64.4337 134.229 70.3324 126.808 69.5712C123.235 69.252 119.921 67.574 117.549 64.8834C115.177 62.1927 113.928 58.6945 114.059 55.1099ZM42.1328 31.1346L50.8857 28.8512V46.5473L65.7276 32.2763L73.3388 35.1305L62.6831 47.1181L69.5332 73.1866H61.7317L56.0233 53.3974L50.6954 58.7253V73.3769L42.1328 72.806V31.1346ZM113.678 70.3324H106.067L105.496 58.535L104.735 50.1626C104.545 44.2639 99.217 45.7862 97.6947 46.5473L98.0753 70.5226L90.6544 70.3324L89.5127 23.7136L96.9336 21.8108L97.1239 40.4583C105.306 37.7944 109.682 37.9847 110.634 49.7821L113.678 70.3324ZM196.45 75.6602L198.543 70.5226H203.491L205.394 76.0408L201.017 78.895L196.45 75.6602ZM167.908 47.4987L166.576 38.7458L173.046 38.9361V26.7581L178.945 29.2318L178.754 40.0778L187.127 40.6486V45.9765L179.135 46.357L179.896 62.3406C179.896 62.3406 179.896 63.6725 182.56 63.6725C184.285 63.5867 185.972 63.1326 187.507 62.3406V70.5226C187.697 72.9963 184.082 74.138 184.082 74.138C172.856 75.8505 173.617 68.4296 173.617 68.4296L173.236 47.689H167.908V47.4987ZM207.867 29.422L201.968 67.6684L192.454 26.3776L207.867 29.422ZM73.3388 46.1667L71.436 40.8389C71.436 40.8389 86.4682 34.1791 88.1807 46.1667L87.8002 71.8546H76.3833C74.8607 71.8314 73.3912 71.2915 72.2157 70.3235C71.0402 69.3554 70.2285 68.0167 69.9138 66.5268C69.9138 66.5268 66.1082 52.446 81.1403 49.5918V46.1667C81.3306 46.1667 78.4764 43.1222 73.3388 46.1667ZM149.451 57.5836C149.832 61.3892 152.115 63.4823 153.637 63.4823C154.62 63.5157 155.599 63.3371 156.507 62.9584C157.415 62.5797 158.231 62.0098 158.899 61.2876C159.567 60.5655 160.072 59.7078 160.379 58.7732C160.686 57.8385 160.787 56.8487 160.678 55.871C160.487 51.3043 158.585 48.4501 154.969 48.4501C151.354 48.4501 149.071 52.6363 149.451 57.5836ZM81.3306 66.9073L81.5209 55.3002C75.2416 54.3488 75.2416 62.7211 75.2416 62.7211C75.8125 68.2393 81.3306 66.9073 81.3306 66.9073ZM128.52 62.7211C130.042 62.5309 132.326 60.4378 132.706 56.8224C133.087 51.8752 130.994 47.689 127.188 47.689C123.383 47.689 121.67 50.5432 121.48 55.1099C121.29 59.6767 124.524 63.292 128.52 62.7211Z" fill="#081C15"/>
</svg>
