<svg width="250" height="101" viewBox="0 0 250 101" fill="none" xmlns="http://www.w3.org/2000/svg">
<path d="M121.099 37.5524V31.5983H108.618V68.3138H121.642V50.5796C124.199 45.4074 127.554 43.3609 133.242 43.3609C134.87 43.3609 135.888 43.5649 137.516 44.1088V31.5983C136.159 31.2584 135.209 31.1224 133.513 31.1224C127.725 31.1224 124.311 33.0941 121.099 37.5524Z" fill="#081C15"/>
<path d="M103.395 31.5983H90.3703C90.6416 39.8083 86.7201 44.0211 78.0243 44.1088V18H65V68.3138H78.0243V55.8033C79.9054 55.7984 81.7836 55.6553 83.6438 55.375L90.0989 68.3138H104.955L95.1269 50.6924C100.381 46.5674 103.207 40.0619 103.395 31.5983Z" fill="#081C15"/>
<path d="M171.637 31.5983L163.382 55.7904L155.22 31.5983H141.179L155.099 68.1472C154.217 70.0333 151.528 70.8975 147.284 70.8975C144.028 70.8975 141.518 70.4895 138.601 69.4017V81.5042C141.721 82.592 144.774 83 147.826 83C161.733 83 168.787 74.1611 174.146 60.1548L185 31.5983H171.637Z" fill="#081C15"/>
</svg>
