<svg width="250" height="101" viewBox="0 0 250 101" fill="none" xmlns="http://www.w3.org/2000/svg">
<path d="M61.1866 23.014C46.088 23.014 33.8477 35.2541 33.8477 50.3525C33.8477 65.451 46.088 77.6918 61.1866 77.6918C76.2852 77.6918 88.5255 65.4528 88.5255 50.3525C88.5255 35.2522 76.2865 23.0153 61.1862 23.0153L61.1866 23.014ZM73.724 62.4441C73.6075 62.6352 73.4544 62.8015 73.2736 62.9334C73.0928 63.0653 72.8877 63.1602 72.6701 63.2128C72.4526 63.2654 72.2268 63.2746 72.0057 63.2398C71.7846 63.2051 71.5725 63.1271 71.3815 63.0103C64.9616 59.0866 56.881 58.2003 47.3647 60.3742C47.1449 60.4291 46.9163 60.4396 46.6923 60.405C46.4684 60.3705 46.2536 60.2916 46.0605 60.1731C45.8674 60.0545 45.6999 59.8986 45.5679 59.7144C45.4358 59.5303 45.3418 59.3217 45.2913 59.1008C45.2409 58.8799 45.235 58.6511 45.2741 58.4279C45.3131 58.2047 45.3963 57.9916 45.5188 57.8009C45.6412 57.6103 45.8005 57.446 45.9873 57.3177C46.174 57.1893 46.3845 57.0996 46.6064 57.0536C57.02 54.6727 65.9529 55.6976 73.159 60.1001C73.3501 60.2169 73.5162 60.3701 73.6481 60.5512C73.7799 60.7322 73.8747 60.9374 73.9271 61.1551C73.9796 61.3728 73.9886 61.5987 73.9537 61.8199C73.9188 62.0411 73.841 62.2532 73.724 62.4441ZM77.0702 55.0008C76.452 56.0039 75.1401 56.3186 74.1384 55.7026C66.7913 51.1864 55.588 49.8781 46.8961 52.5167C46.6275 52.6009 46.3448 52.6311 46.0645 52.6055C45.7842 52.5799 45.5117 52.499 45.2628 52.3675C45.0139 52.236 44.7935 52.0565 44.6144 51.8393C44.4352 51.6222 44.3009 51.3717 44.2191 51.1024C44.1373 50.833 44.1096 50.5501 44.1378 50.27C44.1659 49.9899 44.2492 49.7182 44.3829 49.4705C44.5167 49.2228 44.6982 49.004 44.9169 48.8268C45.1356 48.6496 45.3873 48.5175 45.6574 48.4382C55.5861 45.4256 67.929 46.8849 76.368 52.0707C77.3703 52.6878 77.6871 54 77.0702 55.0008ZM77.3575 47.2493C68.546 42.016 54.0089 41.5349 45.5964 44.0882C45.2742 44.1886 44.9354 44.2242 44.5994 44.193C44.2634 44.1619 43.9369 44.0645 43.6388 43.9066C43.3406 43.7486 43.0766 43.5332 42.8621 43.2728C42.6475 43.0124 42.4866 42.712 42.3887 42.3891C42.2907 42.0662 42.2577 41.7271 42.2914 41.3914C42.3251 41.0557 42.4249 40.7299 42.5851 40.4329C42.7453 40.136 42.9627 39.8736 43.2248 39.6611C43.4868 39.4485 43.7884 39.2899 44.112 39.1944C53.769 36.2628 69.8227 36.8291 79.9669 42.8508C80.55 43.197 80.9717 43.7606 81.1393 44.4177C81.3068 45.0747 81.2065 45.7715 80.8603 46.3546C80.1421 47.5698 78.5686 47.9707 77.3575 47.2493ZM108.228 48.2522C103.508 47.1263 102.667 46.3365 102.667 44.6764C102.667 43.108 104.144 42.0525 106.34 42.0525C108.468 42.0525 110.579 42.8547 112.791 44.504C112.825 44.5285 112.862 44.546 112.902 44.5556C112.943 44.5652 112.984 44.5667 113.025 44.56C113.066 44.5539 113.105 44.5396 113.14 44.5179C113.175 44.4963 113.205 44.4677 113.229 44.434L115.534 41.1851C115.579 41.1207 115.599 41.0413 115.588 40.9632C115.577 40.885 115.536 40.814 115.475 40.7646C112.841 38.6514 109.876 37.624 106.409 37.624C101.313 37.624 97.7526 40.6835 97.7526 45.0588C97.7526 49.7516 100.824 51.4134 106.131 52.6962C110.648 53.7365 111.41 54.6083 111.41 56.166C111.41 57.8927 109.868 58.9661 107.388 58.9661C104.632 58.9661 102.385 58.038 99.8707 55.8608C99.8073 55.8079 99.7262 55.7813 99.6439 55.7862C99.603 55.7893 99.5631 55.8006 99.5267 55.8193C99.4902 55.838 99.4579 55.8639 99.4316 55.8953L96.8473 58.971C96.7951 59.0322 96.769 59.1115 96.7748 59.1918C96.7805 59.2721 96.8176 59.3469 96.8781 59.4C99.8032 62.0117 103.401 63.3907 107.283 63.3907C112.775 63.3907 116.324 60.3899 116.324 55.7453C116.334 51.8246 113.987 49.6535 108.238 48.255L108.228 48.2507V48.2522ZM128.748 43.5966C126.368 43.5966 124.415 44.5342 122.805 46.4555V44.2934C122.805 44.2114 122.773 44.1327 122.715 44.0747C122.657 44.0166 122.578 43.9839 122.496 43.9837H118.271C118.23 43.9838 118.19 43.9918 118.152 44.0074C118.115 44.023 118.081 44.0458 118.052 44.0746C118.023 44.1033 118 44.1374 117.985 44.175C117.969 44.2125 117.962 44.2528 117.962 44.2934V68.321C117.962 68.3616 117.969 68.4019 117.985 68.4394C118 68.477 118.023 68.5111 118.052 68.5398C118.081 68.5686 118.115 68.5914 118.152 68.607C118.19 68.6226 118.23 68.6307 118.271 68.6307H122.497C122.579 68.6305 122.658 68.5978 122.716 68.5397C122.773 68.4817 122.806 68.403 122.806 68.321V60.737C124.416 62.5443 126.369 63.4274 128.749 63.4274C133.172 63.4274 137.65 60.0224 137.65 53.5134C137.657 47.0028 133.178 43.5968 128.754 43.5968H128.749L128.748 43.5966ZM132.734 53.5131C132.734 56.8275 130.693 59.1405 127.769 59.1405C124.879 59.1405 122.699 56.7225 122.699 53.5131C122.699 50.3037 124.879 47.8854 127.769 47.8854C130.645 47.8854 132.734 50.2516 132.734 53.5131ZM149.126 43.5966C143.43 43.5966 138.967 47.983 138.967 53.5838C138.967 59.1243 143.399 63.4638 149.056 63.4638C154.773 63.4638 159.249 59.0922 159.249 53.5131C159.249 47.9529 154.803 43.5974 149.126 43.5974L149.126 43.5966ZM149.126 59.1735C146.096 59.1735 143.812 56.7391 143.812 53.5114C143.812 50.2699 146.017 47.9177 149.056 47.9177C152.106 47.9177 154.405 50.3522 154.405 53.5823C154.405 56.823 152.185 59.1735 149.126 59.1735ZM171.414 43.9833H166.763V39.2284C166.763 39.1464 166.731 39.0678 166.673 39.0098C166.615 38.9518 166.537 38.9191 166.455 38.9189H162.229C162.147 38.9189 162.068 38.9515 162.01 39.0096C161.952 39.0676 161.919 39.1463 161.919 39.2284V43.9837H159.887C159.805 43.984 159.727 44.0168 159.669 44.0749C159.611 44.1329 159.579 44.2115 159.579 44.2934V47.9259C159.579 48.0078 159.611 48.0864 159.669 48.1445C159.727 48.2026 159.805 48.2354 159.887 48.2357H161.919V57.6349C161.919 61.4334 163.81 63.3592 167.538 63.3592C169.054 63.3592 170.312 63.0461 171.498 62.3738C171.545 62.3469 171.584 62.308 171.612 62.2609C171.639 62.2139 171.653 62.1604 171.653 62.1059V58.6467C171.653 58.594 171.64 58.5421 171.614 58.496C171.589 58.4499 171.552 58.4111 171.507 58.3833C171.462 58.3555 171.411 58.3396 171.358 58.3371C171.305 58.3346 171.253 58.3457 171.206 58.3691C170.391 58.7796 169.604 58.968 168.725 58.968C167.369 58.968 166.764 58.3524 166.764 56.9719V48.2374H171.415C171.455 48.2373 171.495 48.2292 171.533 48.2136C171.57 48.198 171.604 48.1751 171.633 48.1463C171.662 48.1176 171.684 48.0834 171.7 48.0459C171.715 48.0084 171.723 47.9681 171.723 47.9276V44.2954C171.724 44.2549 171.717 44.2145 171.703 44.1767C171.688 44.1389 171.666 44.1045 171.637 44.0755C171.609 44.0465 171.575 44.0236 171.538 44.0082C171.5 43.9927 171.46 43.985 171.419 43.9856L171.414 43.9833ZM187.619 43.4179C187.619 41.6998 188.278 40.9336 189.756 40.9336C190.637 40.9336 191.344 41.1086 192.137 41.3729C192.184 41.3884 192.233 41.3925 192.282 41.3851C192.33 41.3776 192.376 41.3587 192.416 41.3299C192.455 41.3012 192.488 41.2634 192.51 41.2197C192.532 41.176 192.544 41.1276 192.544 41.0786V37.5171C192.544 37.4507 192.523 37.386 192.483 37.3325C192.444 37.2791 192.388 37.2397 192.325 37.2203C191.487 36.9711 190.416 36.7155 188.812 36.7155C184.908 36.7155 182.844 38.914 182.844 43.0707V43.9652H180.815C180.733 43.9654 180.654 43.9981 180.596 44.0561C180.538 44.1141 180.505 44.1927 180.505 44.2747V47.9259C180.505 48.008 180.538 48.0867 180.596 48.1447C180.654 48.2028 180.732 48.2355 180.815 48.2357H182.845V62.7337C182.845 62.8156 182.877 62.8943 182.935 62.9523C182.993 63.0104 183.072 63.0431 183.154 63.0433H187.38C187.462 63.0432 187.541 63.0106 187.599 62.9525C187.657 62.8945 187.69 62.8158 187.69 62.7337V48.2367H191.636L197.681 62.7316C196.995 64.2546 196.32 64.5576 195.399 64.5576C194.654 64.5576 193.869 64.3352 193.068 63.8964C193.031 63.8763 192.99 63.8638 192.948 63.8599C192.905 63.8559 192.863 63.8605 192.822 63.8733C192.782 63.8872 192.745 63.9091 192.714 63.9378C192.682 63.9665 192.657 64.0013 192.639 64.0401L191.207 67.1829C191.174 67.254 191.169 67.335 191.194 67.4093C191.219 67.4836 191.271 67.5457 191.34 67.5829C192.836 68.3927 194.186 68.7395 195.855 68.7395C198.976 68.7395 200.701 67.2857 202.221 63.3747L209.554 44.4268C209.573 44.3799 209.579 44.3293 209.574 44.2793C209.568 44.2294 209.55 44.1815 209.522 44.1399C209.494 44.0983 209.456 44.0642 209.411 44.0406C209.367 44.0171 209.317 44.0047 209.267 44.0046H204.866C204.802 44.0047 204.739 44.0247 204.687 44.0619C204.635 44.099 204.595 44.1516 204.574 44.2122L200.066 57.0874L195.129 44.2023C195.107 44.1438 195.067 44.0934 195.016 44.0578C194.964 44.0222 194.903 44.0031 194.841 44.0031H187.619V43.4179ZM178.224 43.9833H173.998C173.916 43.9834 173.837 44.0161 173.779 44.0741C173.721 44.1322 173.688 44.2109 173.688 44.293V62.7333C173.688 62.8154 173.721 62.8941 173.779 62.9522C173.837 63.0102 173.916 63.0429 173.998 63.043H178.225C178.307 63.0428 178.385 63.0102 178.443 62.9521C178.501 62.8941 178.534 62.8154 178.534 62.7333V44.2947C178.534 44.2541 178.527 44.2139 178.511 44.1764C178.496 44.1388 178.473 44.1047 178.444 44.0759C178.416 44.0472 178.382 44.0244 178.344 44.0088C178.307 43.9932 178.266 43.9851 178.226 43.985H178.224L178.224 43.9833ZM176.135 35.5875C174.461 35.5875 173.102 36.9429 173.102 38.6174C173.102 39.2171 173.279 39.8035 173.612 40.3023C173.945 40.8012 174.418 41.1902 174.972 41.4201C175.526 41.65 176.135 41.7106 176.723 41.594C177.312 41.4775 177.852 41.1891 178.277 40.7654C178.701 40.3417 178.99 39.8017 179.108 39.2136C179.225 38.6255 179.166 38.0158 178.937 37.4616C178.708 36.9074 178.319 36.4335 177.821 36.0999C177.323 35.7663 176.737 35.588 176.137 35.5875H176.135ZM213.163 49.9126C211.49 49.9126 210.188 48.5695 210.188 46.9379C210.188 45.3063 211.507 43.9479 213.178 43.9479C213.569 43.9463 213.957 44.0221 214.318 44.1709C214.68 44.3197 215.008 44.5386 215.285 44.815C215.561 45.0914 215.78 45.4198 215.929 45.7812C216.078 46.1426 216.154 46.53 216.153 46.9209C216.153 48.5523 214.834 49.9126 213.163 49.9126ZM213.178 44.2434C211.655 44.2434 210.502 45.4545 210.502 46.9375C210.502 48.4206 211.647 49.616 213.163 49.616C214.687 49.616 215.841 48.4059 215.841 46.9217C215.841 45.4375 214.695 44.2434 213.18 44.2434H213.178ZM213.838 47.2265L214.679 48.4044H213.97L213.213 47.3239H212.561V48.4044H211.968V45.2823H213.36C214.085 45.2823 214.562 45.6535 214.562 46.2783C214.566 46.7902 214.269 47.103 213.841 47.2267L213.838 47.2265ZM213.335 45.8179H212.561V46.8055H213.335C213.721 46.8055 213.952 46.6163 213.952 46.3111C213.952 45.9899 213.72 45.8179 213.335 45.8179Z" fill="#081C15"/>
</svg>
