<svg width="250" height="101" viewBox="0 0 250 101" fill="none" xmlns="http://www.w3.org/2000/svg">
<path d="M64.0956 54.9707H59.3324C59.2921 54.973 59.2517 54.9668 59.2139 54.9523C59.1761 54.9379 59.1418 54.9157 59.1132 54.8871C59.0846 54.8585 59.0624 54.8242 59.048 54.7864C59.0336 54.7486 59.0273 54.7083 59.0296 54.6679V39.1629C59.0328 39.1379 59.0302 39.1124 59.0221 39.0885C59.0139 39.0646 59.0004 39.0429 58.9825 39.0251C58.9647 39.0072 58.943 38.9937 58.9191 38.9856C58.8952 38.9774 58.8698 38.9748 58.8447 38.978H53.7472C53.7068 38.9803 53.6664 38.9741 53.6286 38.9596C53.5909 38.9452 53.5566 38.923 53.528 38.8944C53.4994 38.8658 53.4771 38.8315 53.4627 38.7937C53.4483 38.756 53.442 38.7156 53.4443 38.6752V34.5256C53.4426 34.4855 53.4493 34.4456 53.464 34.4083C53.4786 34.371 53.501 34.3371 53.5295 34.309C53.558 34.2808 53.5921 34.259 53.6296 34.2448C53.6671 34.2306 53.7072 34.2244 53.7472 34.2267H69.677C69.718 34.2237 69.7592 34.2297 69.7977 34.244C69.8363 34.2584 69.8713 34.2809 69.9004 34.31C69.9295 34.3391 69.952 34.3741 69.9664 34.4127C69.9807 34.4512 69.9867 34.4924 69.9837 34.5334V38.6752C69.9861 38.7159 69.9797 38.7567 69.9651 38.7947C69.9504 38.8328 69.9278 38.8673 69.8988 38.896C69.8698 38.9246 69.835 38.9468 69.7967 38.9609C69.7585 38.9751 69.7176 38.9809 69.677 38.978H64.5834C64.5583 38.9748 64.5329 38.9774 64.509 38.9856C64.4851 38.9937 64.4634 39.0072 64.4455 39.0251C64.4277 39.0429 64.4142 39.0646 64.406 39.0885C64.3979 39.1124 64.3953 39.1379 64.3985 39.1629V54.6797C64.4008 54.7201 64.3945 54.7604 64.3801 54.7982C64.3657 54.836 64.3434 54.8703 64.3149 54.8989C64.2863 54.9275 64.252 54.9497 64.2142 54.9641C64.1764 54.9786 64.136 54.9848 64.0956 54.9825V54.9707ZM88.7966 54.9707H83.5142C83.4154 54.9898 83.313 54.9703 83.2281 54.9162C83.1432 54.862 83.0823 54.7774 83.058 54.6797L79.9113 47.5998H77.9447C77.92 47.5957 77.8947 47.5976 77.8709 47.6052C77.8471 47.6128 77.8254 47.6261 77.8077 47.6438C77.79 47.6614 77.7768 47.6831 77.7692 47.7069C77.7615 47.7307 77.7597 47.756 77.7638 47.7807V54.6797C77.7661 54.7204 77.7597 54.7612 77.7451 54.7992C77.7304 54.8373 77.7079 54.8718 77.6788 54.9005C77.6498 54.9291 77.615 54.9513 77.5767 54.9654C77.5385 54.9796 77.4977 54.9854 77.457 54.9825H72.682C72.6413 54.9854 72.6005 54.9796 72.5622 54.9654C72.5239 54.9513 72.4892 54.9291 72.4601 54.9005C72.4311 54.8718 72.4085 54.8373 72.3939 54.7992C72.3792 54.7612 72.3728 54.7204 72.3752 54.6797V34.5256C72.3734 34.4852 72.3802 34.4449 72.3951 34.4073C72.41 34.3697 72.4327 34.3357 72.4617 34.3074C72.4906 34.2792 72.5252 34.2574 72.5632 34.2435C72.6012 34.2296 72.6416 34.2238 72.682 34.2267H81.1346C85.8978 34.2267 88.6078 37.0035 88.6078 40.9132C88.6078 43.5092 87.3885 45.6332 85.1898 46.7148L89.0051 54.6167C89.0294 54.6534 89.0429 54.6961 89.0442 54.7401C89.0455 54.7841 89.0345 54.8275 89.0124 54.8656C88.9903 54.9036 88.958 54.9347 88.9192 54.9554C88.8804 54.9761 88.8366 54.9855 88.7927 54.9825L88.7966 54.9707ZM80.8003 43.1709C82.3264 43.1709 83.2428 42.3174 83.2428 40.9762C83.2428 39.6349 82.3264 38.7775 80.8003 38.7775H77.929C77.9041 38.7741 77.8787 38.7766 77.855 38.7847C77.8312 38.7929 77.8097 38.8065 77.7921 38.8245C77.7745 38.8424 77.7614 38.8642 77.7537 38.8882C77.7461 38.9121 77.7441 38.9375 77.748 38.9623V42.9782C77.7439 43.0029 77.7458 43.0282 77.7534 43.052C77.7611 43.0758 77.7743 43.0975 77.792 43.1152C77.8097 43.1328 77.8313 43.1461 77.8552 43.1537C77.879 43.1614 77.9043 43.1632 77.929 43.1591L80.8003 43.1709ZM90.5469 54.6797L97.7173 34.5374C97.7373 34.4487 97.7874 34.3696 97.8591 34.3137C97.9308 34.2577 98.0197 34.2284 98.1106 34.2306H103.086C103.177 34.2284 103.266 34.2577 103.338 34.3137C103.409 34.3696 103.46 34.4487 103.48 34.5374L110.504 54.6797C110.524 54.7134 110.533 54.7518 110.531 54.7905C110.529 54.8293 110.516 54.8667 110.494 54.8984C110.472 54.9302 110.441 54.9549 110.405 54.9698C110.369 54.9847 110.33 54.9891 110.292 54.9825H105.257C105.167 54.985 105.079 54.9562 105.007 54.901C104.935 54.8458 104.885 54.7677 104.864 54.6797L103.889 51.4741H97.1391L96.1636 54.6797C96.1429 54.7677 96.0924 54.8458 96.0208 54.901C95.9491 54.9562 95.8607 54.985 95.7703 54.9825H90.775C90.7372 54.9876 90.6987 54.9821 90.6638 54.9668C90.6289 54.9515 90.5988 54.9268 90.5769 54.8956C90.555 54.8644 90.5421 54.8277 90.5396 54.7896C90.5371 54.7516 90.545 54.7135 90.5626 54.6797H90.5469ZM98.5118 47.0177H102.539L100.608 40.5199H100.518L98.5039 46.9901L98.5118 47.0177ZM112.837 54.6797V34.5256C112.834 34.4845 112.84 34.4434 112.854 34.4048C112.869 34.3663 112.891 34.3313 112.92 34.3022C112.949 34.2731 112.984 34.2506 113.023 34.2362C113.061 34.2218 113.103 34.2159 113.144 34.2188H121.167C124.829 34.2188 127.516 35.7449 128.554 38.9387C128.983 40.28 129.164 41.4403 129.164 44.583C129.164 47.7257 128.983 48.886 128.554 50.2311C127.516 53.4328 124.829 54.9511 121.167 54.9511H113.144C113.103 54.9539 113.062 54.9481 113.024 54.9339C112.986 54.9198 112.951 54.8976 112.922 54.869C112.893 54.8403 112.87 54.8058 112.855 54.7678C112.841 54.7297 112.834 54.6889 112.837 54.6482V54.6797ZM118.21 50.0384C118.206 50.0632 118.208 50.0886 118.215 50.1126C118.223 50.1365 118.236 50.1583 118.254 50.1763C118.271 50.1942 118.293 50.2078 118.317 50.216C118.34 50.2242 118.366 50.2266 118.391 50.2233H120.011C121.903 50.2233 122.937 49.7041 123.429 48.2566C123.61 47.647 123.732 46.9469 123.732 44.6262C123.732 42.3056 123.61 41.6055 123.429 40.9958C122.937 39.5287 121.903 39.0095 120.011 39.0095H118.391C118.366 39.0061 118.34 39.0086 118.317 39.0168C118.293 39.025 118.271 39.0386 118.254 39.0565C118.236 39.0745 118.223 39.0963 118.215 39.1202C118.208 39.1442 118.206 39.1696 118.21 39.1944V50.0384ZM132.444 54.6797V34.5256C132.441 34.4849 132.447 34.4441 132.461 34.4058C132.475 34.3676 132.498 34.3328 132.526 34.3037C132.555 34.2747 132.589 34.2521 132.627 34.2375C132.666 34.2228 132.706 34.2164 132.747 34.2188H146.329C146.369 34.2164 146.41 34.2228 146.448 34.2375C146.486 34.2521 146.521 34.2747 146.549 34.3037C146.578 34.3328 146.6 34.3676 146.614 34.4058C146.628 34.4441 146.634 34.4849 146.631 34.5256V38.4589C146.634 38.4992 146.627 38.5396 146.613 38.5774C146.599 38.6152 146.576 38.6495 146.548 38.6781C146.519 38.7067 146.485 38.7289 146.447 38.7433C146.409 38.7577 146.369 38.764 146.329 38.7617H137.998C137.973 38.7585 137.947 38.7611 137.924 38.7692C137.9 38.7774 137.878 38.7909 137.86 38.8088C137.842 38.8266 137.829 38.8483 137.821 38.8722C137.812 38.8961 137.81 38.9215 137.813 38.9466V42.0932C137.81 42.1181 137.812 42.1434 137.82 42.1672C137.829 42.191 137.842 42.2125 137.86 42.2301C137.878 42.2477 137.9 42.2608 137.924 42.2684C137.948 42.2761 137.973 42.278 137.998 42.2741H144.834C144.875 42.2718 144.915 42.2782 144.954 42.2928C144.992 42.3075 145.026 42.33 145.055 42.3591C145.083 42.3881 145.106 42.4229 145.12 42.4612C145.134 42.4994 145.14 42.5402 145.137 42.5809V46.4198C145.139 46.4602 145.133 46.5006 145.118 46.5383C145.104 46.5761 145.082 46.6104 145.053 46.639C145.025 46.6676 144.99 46.6898 144.953 46.7043C144.915 46.7187 144.874 46.7249 144.834 46.7227H137.998C137.973 46.7195 137.947 46.722 137.924 46.7302C137.9 46.7383 137.878 46.7519 137.86 46.7697C137.842 46.7876 137.829 46.8093 137.821 46.8332C137.812 46.857 137.81 46.8825 137.813 46.9075V50.2351C137.81 50.26 137.812 50.2853 137.82 50.3091C137.829 50.3329 137.842 50.3544 137.86 50.372C137.878 50.3895 137.9 50.4027 137.924 50.4103C137.948 50.418 137.973 50.4199 137.998 50.416H146.329C146.371 50.4138 146.414 50.421 146.453 50.4373C146.493 50.4536 146.528 50.4785 146.557 50.5101C146.585 50.5417 146.607 50.5794 146.619 50.6203C146.631 50.6611 146.634 50.7042 146.628 50.7464V54.6797C146.63 54.7201 146.624 54.7604 146.609 54.7982C146.595 54.836 146.573 54.8703 146.544 54.8989C146.515 54.9275 146.481 54.9497 146.443 54.9641C146.405 54.9786 146.365 54.9848 146.325 54.9825H132.747C132.707 54.9848 132.666 54.9786 132.628 54.9641C132.591 54.9497 132.556 54.9275 132.528 54.8989C132.499 54.8703 132.477 54.836 132.463 54.7982C132.448 54.7604 132.442 54.7201 132.444 54.6797ZM69.8264 79.892H64.548C64.4469 79.9106 64.3426 79.8889 64.2573 79.8315C64.1721 79.7742 64.1126 79.6858 64.0917 79.5852L60.9451 72.5053H58.9784C58.9535 72.5019 58.9282 72.5044 58.9044 72.5126C58.8807 72.5207 58.8591 72.5343 58.8416 72.5523C58.824 72.5702 58.8109 72.5921 58.8032 72.616C58.7956 72.6399 58.7936 72.6653 58.7975 72.6901V79.5852C58.8004 79.6262 58.7945 79.6674 58.7801 79.706C58.7657 79.7445 58.7432 79.7795 58.7141 79.8086C58.685 79.8377 58.65 79.8602 58.6115 79.8746C58.5729 79.889 58.5318 79.8949 58.4907 79.892H53.7157C53.6747 79.8949 53.6335 79.889 53.5949 79.8746C53.5564 79.8602 53.5214 79.8377 53.4923 79.8086C53.4632 79.7795 53.4407 79.7445 53.4263 79.706C53.4119 79.6674 53.406 79.6262 53.4089 79.5852V59.4311C53.4066 59.3904 53.413 59.3496 53.4276 59.3115C53.4423 59.2735 53.4648 59.239 53.4939 59.2103C53.5229 59.1816 53.5577 59.1595 53.596 59.1454C53.6342 59.1312 53.675 59.1254 53.7157 59.1282H62.1683C66.9276 59.1282 69.6416 61.9051 69.6416 65.8148C69.6416 68.4107 68.4183 70.5347 66.2235 71.6124L70.0388 79.5183C70.0634 79.5553 70.077 79.5984 70.0782 79.6427C70.0793 79.6871 70.068 79.7309 70.0454 79.7691C70.0228 79.8073 69.9899 79.8383 69.9505 79.8587C69.9111 79.879 69.8667 79.8878 69.8225 79.8841L69.8264 79.892ZM61.8301 68.0528C63.3562 68.0528 64.2726 67.1993 64.2726 65.858C64.2726 64.5168 63.3562 63.6594 61.8301 63.6594H58.9627C58.938 63.6553 58.9127 63.6571 58.8889 63.6648C58.8651 63.6724 58.8434 63.6856 58.8257 63.7033C58.8081 63.721 58.7948 63.7427 58.7872 63.7665C58.7795 63.7903 58.7777 63.8156 58.7818 63.8403V67.8719C58.7777 67.8966 58.7795 67.9219 58.7872 67.9457C58.7948 67.9695 58.8081 67.9912 58.8257 68.0089C58.8434 68.0265 58.8651 68.0398 58.8889 68.0474C58.9127 68.0551 58.938 68.0569 58.9627 68.0528H61.8301ZM72.9534 79.5576V59.4311C72.9511 59.3907 72.9574 59.3503 72.9718 59.3125C72.9862 59.2748 73.0084 59.2405 73.037 59.2119C73.0656 59.1833 73.0999 59.161 73.1377 59.1466C73.1755 59.1322 73.2159 59.1259 73.2562 59.1282H86.8418C86.8825 59.1254 86.9233 59.1312 86.9615 59.1454C86.9998 59.1595 87.0346 59.1816 87.0636 59.2103C87.0926 59.239 87.1152 59.2735 87.1299 59.3115C87.1445 59.3496 87.1509 59.3904 87.1486 59.4311V63.3644C87.1515 63.4054 87.1456 63.4466 87.1312 63.4851C87.1168 63.5237 87.0943 63.5587 87.0652 63.5878C87.0361 63.6169 87.0011 63.6394 86.9625 63.6538C86.924 63.6681 86.8828 63.6741 86.8418 63.6711H78.5072C78.4823 63.6672 78.4569 63.6692 78.433 63.6768C78.4091 63.6845 78.3873 63.6976 78.3693 63.7152C78.3513 63.7328 78.3377 63.7543 78.3296 63.7781C78.3214 63.8018 78.3189 63.8272 78.3223 63.8521V66.9987C78.3189 67.0236 78.3214 67.0489 78.3296 67.0727C78.3377 67.0965 78.3513 67.118 78.3693 67.1356C78.3873 67.1532 78.4091 67.1663 78.433 67.1739C78.4569 67.1816 78.4823 67.1835 78.5072 67.1796H85.3432C85.3842 67.1767 85.4254 67.1826 85.464 67.197C85.5025 67.2114 85.5375 67.2339 85.5666 67.263C85.5957 67.2921 85.6182 67.3271 85.6326 67.3657C85.647 67.4042 85.6529 67.4454 85.65 67.4864V71.3292C85.6529 71.3703 85.647 71.4115 85.6326 71.45C85.6182 71.4886 85.5957 71.5236 85.5666 71.5527C85.5375 71.5817 85.5025 71.6043 85.464 71.6186C85.4254 71.633 85.3842 71.639 85.3432 71.636H78.5072C78.482 71.632 78.4562 71.6339 78.4319 71.6418C78.4076 71.6497 78.3855 71.6632 78.3675 71.6812C78.3494 71.6993 78.3359 71.7213 78.3281 71.7456C78.3202 71.7699 78.3182 71.7957 78.3223 71.8209V75.1327C78.3191 75.1578 78.3217 75.1832 78.3298 75.2071C78.338 75.231 78.3515 75.2527 78.3693 75.2705C78.3872 75.2884 78.4089 75.3019 78.4328 75.3101C78.4567 75.3182 78.4821 75.3208 78.5072 75.3176H86.8418C86.8825 75.3147 86.9233 75.3206 86.9615 75.3347C86.9998 75.3489 87.0346 75.371 87.0636 75.3997C87.0926 75.4283 87.1152 75.4628 87.1299 75.5009C87.1445 75.539 87.1509 75.5797 87.1486 75.6204V79.5537C87.1515 79.5948 87.1456 79.6359 87.1312 79.6745C87.1168 79.713 87.0943 79.748 87.0652 79.7771C87.0361 79.8062 87.0011 79.8287 86.9625 79.8431C86.924 79.8575 86.8828 79.8634 86.8418 79.8605H73.2562C73.2155 79.8628 73.1748 79.8565 73.1367 79.8418C73.0986 79.8272 73.0641 79.8046 73.0355 79.7756C73.0068 79.7465 72.9847 79.7117 72.9705 79.6735C72.9564 79.6352 72.9505 79.5944 72.9534 79.5537V79.5576ZM95.373 79.8644H90.6059C90.5649 79.8674 90.5237 79.8614 90.4851 79.847C90.4466 79.8327 90.4116 79.8102 90.3825 79.7811C90.3534 79.752 90.3309 79.717 90.3165 79.6784C90.3021 79.6399 90.2962 79.5987 90.2991 79.5576V59.4311C90.2968 59.3904 90.3031 59.3496 90.3178 59.3115C90.3324 59.2735 90.355 59.239 90.3841 59.2103C90.4131 59.1816 90.4479 59.1595 90.4861 59.1454C90.5244 59.1312 90.5652 59.1254 90.6059 59.1282H98.9051C103.971 59.1282 106.595 61.9956 106.595 66.0232C106.595 69.9919 103.94 72.9537 98.9051 72.9537H95.8529C95.8282 72.9496 95.8029 72.9514 95.7791 72.9591C95.7553 72.9667 95.7336 72.98 95.7159 72.9976C95.6982 73.0153 95.685 73.037 95.6774 73.0608C95.6697 73.0846 95.6679 73.1099 95.672 73.1346V79.5734C95.6749 79.6144 95.669 79.6556 95.6546 79.6942C95.6402 79.7327 95.6177 79.7677 95.5886 79.7968C95.5595 79.8259 95.5245 79.8484 95.4859 79.8628C95.4474 79.8772 95.4062 79.8831 95.3652 79.8802L95.373 79.8644ZM98.6062 68.3911C100.286 68.3911 101.234 67.4432 101.234 66.0075C101.234 64.5719 100.286 63.6476 98.6062 63.6476H95.8529C95.8282 63.6435 95.8029 63.6453 95.7791 63.653C95.7553 63.6606 95.7336 63.6738 95.7159 63.6915C95.6982 63.7092 95.685 63.7309 95.6774 63.7547C95.6697 63.7785 95.6679 63.8038 95.672 63.8285V68.1944C95.6681 68.2192 95.67 68.2446 95.6777 68.2686C95.6853 68.2925 95.6984 68.3143 95.716 68.3323C95.7336 68.3502 95.7551 68.3638 95.7789 68.372C95.8027 68.3802 95.828 68.3826 95.8529 68.3793L98.6062 68.3911ZM117.521 80.246C112.487 80.246 109.261 77.3786 109.261 71.8524V59.4311C109.259 59.3904 109.265 59.3496 109.28 59.3115C109.295 59.2735 109.317 59.239 109.346 59.2103C109.375 59.1816 109.41 59.1595 109.448 59.1454C109.487 59.1312 109.528 59.1254 109.568 59.1282H114.327C114.368 59.1254 114.409 59.1312 114.447 59.1454C114.486 59.1595 114.52 59.1816 114.549 59.2103C114.578 59.239 114.601 59.2735 114.616 59.3115C114.63 59.3496 114.637 59.3904 114.634 59.4311V72.1906C114.634 74.2635 115.814 75.4552 117.533 75.4552C119.335 75.4552 120.4 74.2753 120.4 72.1906V59.4311C120.399 59.3905 120.406 59.35 120.42 59.3123C120.435 59.2745 120.458 59.2402 120.487 59.2117C120.516 59.1832 120.55 59.161 120.588 59.1466C120.626 59.1323 120.667 59.126 120.707 59.1282H125.467C125.507 59.1254 125.548 59.1312 125.586 59.1454C125.625 59.1595 125.659 59.1816 125.688 59.2103C125.717 59.239 125.74 59.2735 125.755 59.3115C125.769 59.3496 125.776 59.3904 125.773 59.4311V71.8524C125.781 77.3786 122.477 80.246 117.521 80.246ZM129.404 79.5734V59.4311C129.402 59.3905 129.409 59.35 129.424 59.3123C129.439 59.2745 129.461 59.2402 129.49 59.2117C129.519 59.1832 129.553 59.161 129.591 59.1466C129.629 59.1323 129.67 59.126 129.711 59.1282H138.163C142.804 59.1282 144.94 61.3545 144.94 64.6348C144.94 66.7706 143.965 68.2652 142.407 69.0912V69.1502C143.933 69.7323 145.306 71.4708 145.306 73.8701C145.306 77.9293 142.439 79.8526 138.073 79.8526H129.714C129.674 79.8549 129.633 79.8485 129.594 79.8339C129.556 79.8193 129.521 79.7968 129.492 79.7678C129.464 79.7389 129.441 79.7041 129.426 79.6659C129.412 79.6276 129.405 79.5867 129.408 79.5458L129.404 79.5734ZM134.961 67.4589H137.129C138.745 67.4589 139.599 66.7588 139.599 65.3231C139.599 63.8875 138.773 63.1874 137.129 63.1874H134.961C134.937 63.1835 134.911 63.1854 134.887 63.193C134.863 63.2007 134.842 63.2138 134.824 63.2314C134.806 63.249 134.792 63.2705 134.784 63.2943C134.776 63.318 134.773 63.3434 134.777 63.3683V67.2662C134.773 67.2912 134.776 67.3166 134.784 67.3405C134.792 67.3644 134.806 67.3861 134.824 67.404C134.841 67.4218 134.863 67.4354 134.887 67.4435C134.911 67.4517 134.936 67.4542 134.961 67.451V67.4589ZM134.777 75.6362C134.773 75.6612 134.776 75.6867 134.784 75.7105C134.792 75.7344 134.806 75.7561 134.824 75.774C134.841 75.7918 134.863 75.8054 134.887 75.8135C134.911 75.8217 134.936 75.8242 134.961 75.821H137.4C139.08 75.821 139.933 74.995 139.933 73.4611C139.933 72.0254 139.08 71.1404 137.4 71.1404H134.961C134.937 71.1365 134.911 71.1385 134.887 71.1461C134.863 71.1538 134.842 71.1669 134.824 71.1845C134.806 71.2021 134.792 71.2236 134.784 71.2474C134.776 71.2711 134.773 71.2965 134.777 71.3214V75.6362ZM148.492 79.5694V59.4311C148.49 59.3904 148.496 59.3496 148.511 59.3115C148.525 59.2735 148.548 59.239 148.577 59.2103C148.606 59.1816 148.641 59.1595 148.679 59.1454C148.717 59.1312 148.758 59.1254 148.799 59.1282H153.558C153.599 59.126 153.639 59.1323 153.677 59.1466C153.715 59.161 153.75 59.1832 153.778 59.2117C153.807 59.2402 153.83 59.2745 153.845 59.3123C153.86 59.35 153.866 59.3905 153.865 59.4311V74.936C153.861 74.9607 153.863 74.986 153.87 75.0098C153.878 75.0337 153.891 75.0553 153.909 75.073C153.926 75.0907 153.948 75.1039 153.972 75.1116C153.996 75.1192 154.021 75.1211 154.046 75.117H162.837C162.877 75.1153 162.918 75.1221 162.955 75.1369C162.993 75.1518 163.027 75.1744 163.056 75.2033C163.084 75.2322 163.107 75.2667 163.121 75.3047C163.135 75.3427 163.142 75.3832 163.139 75.4238V79.5734C163.142 79.6141 163.136 79.6549 163.122 79.6932C163.108 79.7314 163.086 79.7662 163.057 79.7952C163.029 79.8243 162.994 79.8468 162.956 79.8615C162.918 79.8761 162.877 79.8825 162.837 79.8802H148.811C148.769 79.8831 148.728 79.8772 148.69 79.8628C148.651 79.8484 148.616 79.8259 148.587 79.7968C148.558 79.7677 148.536 79.7327 148.521 79.6942C148.507 79.6556 148.501 79.6144 148.504 79.5734L148.492 79.5694ZM165.747 79.5694V59.4311C165.745 59.3907 165.751 59.3503 165.766 59.3125C165.78 59.2748 165.802 59.2405 165.831 59.2119C165.859 59.1833 165.894 59.161 165.932 59.1466C165.969 59.1322 166.01 59.1259 166.05 59.1282H170.813C170.854 59.1259 170.894 59.1322 170.932 59.1466C170.97 59.161 171.004 59.1833 171.032 59.2119C171.061 59.2405 171.083 59.2748 171.098 59.3125C171.112 59.3503 171.118 59.3907 171.116 59.4311V79.5734C171.119 79.6141 171.113 79.6549 171.099 79.6932C171.085 79.7314 171.063 79.7662 171.034 79.7952C171.005 79.8243 170.971 79.8468 170.933 79.8615C170.895 79.8761 170.854 79.8825 170.813 79.8802H166.062C166.021 79.8825 165.98 79.8761 165.942 79.8615C165.904 79.8468 165.87 79.8243 165.841 79.7952C165.812 79.7662 165.79 79.7314 165.776 79.6932C165.762 79.6549 165.756 79.6141 165.759 79.5734L165.747 79.5694ZM174.947 75.1327C174.491 73.7325 174.337 72.5997 174.337 69.5199C174.337 66.4402 174.491 65.3074 174.947 63.9032C176.048 60.5167 178.735 58.79 182.487 58.79C186.149 58.79 188.78 60.5285 189.933 63.5099C190.023 63.7262 189.996 63.8481 189.78 63.9386L185.728 65.6929C185.516 65.7833 185.394 65.7243 185.303 65.508C184.721 64.2887 183.99 63.5414 182.586 63.5414C182.023 63.4999 181.465 63.6578 181.007 63.9872C180.55 64.3166 180.223 64.7965 180.084 65.3428C179.872 65.9839 179.777 66.6211 179.777 69.4924C179.777 72.3637 179.872 73.0009 180.084 73.642C180.223 74.1883 180.55 74.6682 181.007 74.9976C181.465 75.327 182.023 75.4849 182.586 75.4434C183.99 75.4434 184.721 74.7118 185.303 73.4768C185.394 73.2644 185.516 73.2015 185.728 73.2959L189.787 75.0658C190.004 75.1563 190.031 75.2782 189.941 75.4906C188.78 78.4839 186.157 80.2106 182.495 80.2106C178.743 80.2106 176.056 78.4721 174.955 75.0973L174.947 75.1327ZM196.58 46.7856C196.58 47.0143 196.502 47.2361 196.359 47.4147C196.216 47.5933 196.017 47.7182 195.793 47.7689L180.867 51.3443C180.422 51.454 179.956 51.4349 179.522 51.2892L173.012 49.1338C172.577 48.9879 172.109 48.9688 171.663 49.0787L157.322 52.54C157.061 52.6016 156.787 52.5576 156.558 52.4176C156.33 52.2776 156.166 52.053 156.103 51.7927C156.086 51.7151 156.076 51.6361 156.075 51.5567V41.4049C156.076 41.1762 156.154 40.9544 156.297 40.7758C156.44 40.5972 156.639 40.4723 156.862 40.4216L171.675 36.8462C172.121 36.7404 172.588 36.7594 173.024 36.9013L179.545 39.0449C179.98 39.1869 180.445 39.2059 180.89 39.1L195.345 35.6348C195.474 35.6037 195.608 35.5984 195.739 35.6192C195.871 35.6399 195.996 35.6864 196.11 35.7558C196.223 35.8252 196.321 35.9162 196.399 36.0237C196.477 36.1311 196.533 36.2529 196.564 36.3821C196.583 36.4593 196.592 36.5386 196.592 36.6181V46.7699L196.58 46.7856ZM196.58 31.6386C196.58 31.8673 196.502 32.0891 196.359 32.2677C196.216 32.4463 196.017 32.5711 195.793 32.6219L180.879 36.1933C180.434 36.303 179.967 36.2839 179.533 36.1382L173.012 33.9985C172.577 33.8527 172.109 33.8336 171.663 33.9435L157.322 37.4047C157.061 37.4664 156.787 37.4224 156.558 37.2824C156.33 37.1424 156.166 36.9177 156.103 36.6574C156.086 36.5799 156.076 36.5008 156.075 36.4214V26.2578C156.075 26.0294 156.153 25.8078 156.296 25.6297C156.439 25.4516 156.639 25.3277 156.862 25.2784L171.675 21.6992C172.121 21.5933 172.588 21.6124 173.024 21.7542L179.545 23.8979C179.98 24.0398 180.445 24.0589 180.89 23.9529L195.333 20.4877C195.462 20.4567 195.596 20.4514 195.728 20.4721C195.859 20.4929 195.985 20.5393 196.098 20.6087C196.211 20.6781 196.309 20.7692 196.388 20.8766C196.466 20.9841 196.522 21.1059 196.553 21.235C196.571 21.3123 196.581 21.3915 196.58 21.471V31.6386Z" fill="#081C15"/>
</svg>
